<svg class="logo w-24 h-5 lg:w-32 lg:h-8" viewBox="1.667 2.167 196.667 30.833" fill="currentColor" xmlns="http://www.w3.org/2000/svg" xmlns:xlink="http://www.w3.org/1999/xlink">
<path d="M27.9796 22.4871C26.4096 27.3654 23.662 31.5989 16.5407 31.8793C5.94294 31.8793 2.71875 23.0478 2.71875 18.3096C2.71875 6.11375 12.5035 3.16992 16.4286 3.16992C20.8864 3.16992 27.1946 5.21658 27.1946 10.4874C27.1946 12.3378 26.0171 14.1322 24.1106 14.1322C22.2602 14.1322 20.8864 12.8986 20.8864 10.908C20.8864 8.24452 23.0732 7.88005 23.0732 7.1511C23.0732 5.30069 18.7556 4.54371 17.2416 4.54371C10.6531 4.54371 8.94285 9.33795 8.94285 18.3096C8.94285 22.431 9.9802 25.5711 10.3727 26.5243C11.4101 28.7953 13.5128 30.2251 17.0734 30.4214C21.0826 30.6457 24.8956 27.4215 26.5498 22.4871H27.9796Z"></path>
<path d="M36.4507 17.4966C36.4507 23.244 36.5067 30.5055 43.4317 30.5055C50.3568 30.5055 50.4128 23.244 50.4128 17.4966C50.4128 11.8052 50.3568 4.54371 43.4317 4.54371C36.5067 4.54371 36.4507 11.8052 36.4507 17.4966ZM56.665 17.4966C56.665 25.7954 50.6371 31.8793 43.4598 31.8793C36.2824 31.8793 30.2266 25.7673 30.2266 17.4966C30.2266 9.2258 36.2544 3.16992 43.4317 3.16992C50.6091 3.16992 56.665 9.19776 56.665 17.4966Z"></path>
<path d="M61.5147 5.44088H57.7578V3.87083H59.1877C60.4773 3.89887 61.739 3.8428 63.0287 3.73065C64.3183 3.64654 65.608 3.45029 66.8697 3.16992V10.4314H67.0098C68.9163 6.11375 71.5798 3.16992 76.5703 3.16992C79.0375 3.16992 84.7289 3.73065 84.7289 10.0108V29.384H88.4297V30.9541H75.8133V29.384H79.3739V10.88C79.3739 5.88946 77.8039 5.13247 75.0563 5.13247C70.4023 5.13247 66.8416 11.4968 66.8416 16.6274V29.356H70.5424V30.926H57.7578V29.356H61.5147V5.44088Z"></path>
<path d="M104.607 3.87109V5.44114H108.784L101.859 25.0947H101.719L95.0741 5.44114H98.7189V3.87109H86.3828V5.44114H89.6631L98.831 31.8795H101.186L110.634 5.44114H113.915V3.87109H104.607Z"></path>
<path d="M132.332 13.3752V11.0482C132.332 6.11375 129.444 4.54371 126.024 4.54371C121.902 4.54371 120.052 8.38471 119.912 8.86133C119.491 10.3192 119.239 11.8612 119.239 13.3752H132.332ZM138.5 22.4871C137.126 28.8513 132.472 31.8793 126.444 31.8793C119.463 31.8793 112.734 26.272 112.734 18.6461C112.734 10.5716 118.089 3.16992 126.22 3.16992C133.201 3.16992 138.472 7.90809 138.556 15.3658H119.155V18.1694C119.155 24.9543 120.052 30.4214 127.51 30.4214C131.407 30.4214 136.005 27.0009 136.958 22.4871H138.5Z"></path>
<path d="M143.773 5.44088H140.016V3.87083H141.445C142.735 3.89887 143.997 3.8428 145.286 3.73065C146.576 3.64654 147.866 3.45029 149.127 3.16992V10.4314H149.268C151.174 6.11375 153.838 3.16992 158.856 3.16992C161.323 3.16992 167.015 3.73065 167.015 10.0108V29.384H170.716V30.9541H158.099V29.384H161.66V10.88C161.66 5.88946 160.09 5.13247 157.342 5.13247C152.688 5.13247 149.127 11.4968 149.127 16.6274V29.356H152.828V30.926H140.016V29.356H143.773V5.44088Z"></path>
<path d="M190.987 13.3752V11.0482C190.987 6.11375 188.1 4.54371 184.679 4.54371C180.558 4.54371 178.707 8.38471 178.595 8.86133C178.175 10.3192 177.922 11.8612 177.922 13.3752H190.987ZM197.155 22.4871C195.782 28.8513 191.128 31.8793 185.1 31.8793C178.119 31.8793 171.418 26.272 171.418 18.6461C171.418 10.5716 176.745 3.16992 184.904 3.16992C191.885 3.16992 197.155 7.90809 197.24 15.3658H177.838V18.1694C177.838 24.9543 178.735 30.4214 186.193 30.4214C190.09 30.4214 194.688 27.0009 195.641 22.4871H197.155Z"></path>
</svg>